<svg width="484" height="375" viewBox="0 0 484 375" fill="none" xmlns="http://www.w3.org/2000/svg">
<path d="M152.571 0H63.1519L152.571 184.426V0Z" fill="black"/>
<path d="M83.2712 375H172.69L83.2712 190.574L83.2712 375Z" fill="black"/>
<path d="M21.7958 45.8271H59.7988L49.7392 22.9136H0V350.969H59.7988V328.614H21.7958V45.8271Z" fill="black"/>
<path d="M211.811 329.732H178.837L190.574 352.086H211.811V329.732Z" fill="black"/>
<path d="M174.925 44.7094V22.3547H211.252V44.7094H174.925Z" fill="black"/>
<path d="M234.165 374.441V0H259.314V374.441H234.165Z" fill="black"/>
<path d="M281.669 44.7094V22.9135L432.004 22.9135C474 22.9136 483.979 59.7888 483.979 75.4471V299.553C483.979 341 450.5 352.086 432.004 352.086H281.669V328.614H432.004C452.745 328.614 461.022 315 461.066 299.553C461.252 233.234 461.556 97.5 461.066 75.4471C460.575 53.3942 448 44.7094 432.004 44.7094H408H281.669Z" fill="black"/>
<path d="M328.055 287.258V91.0954H383.383C398.137 91.0954 403.316 105.998 404.061 113.45V267.139C404.061 279.547 389.344 287.258 383.383 287.258H328.055Z" fill="black"/>
</svg>
